<svg width="102" height="147" viewBox="0 0 102 147" fill="none" xmlns="http://www.w3.org/2000/svg">
<circle cx="50.8847" cy="107.423" r="39.577" fill="#F5E4A3"/>
<circle cx="50.8847" cy="79.154" r="45.2308" fill="#F1D561"/>
<circle cx="50.8847" cy="50.8847" r="50.8847" fill="#F1C40F"/>
<path d="M44.5601 45.209C44.9474 45.209 45.2209 45.2944 45.3804 45.4653C45.5513 45.6248 45.6367 45.8983 45.6367 46.2856V57.4966H46.9526C47.2261 57.4966 47.4368 57.5422 47.585 57.6333C47.7331 57.7244 47.8413 57.8953 47.9097 58.146C47.9894 58.3966 48.0293 58.7612 48.0293 59.2397C48.0293 59.7183 47.9894 60.0828 47.9097 60.3335C47.8413 60.5841 47.7331 60.7607 47.585 60.8633C47.4368 60.9544 47.2261 61 46.9526 61H43.1245C42.7371 61 42.458 60.9202 42.2871 60.7607C42.1276 60.5898 42.0479 60.3107 42.0479 59.9233V57.4453C40.5439 60.0658 38.6641 61.376 36.4082 61.376C35.3714 61.376 34.46 61.1481 33.6738 60.6924C32.8991 60.2367 32.3009 59.5929 31.8794 58.7612C31.4578 57.9181 31.2471 56.9326 31.2471 55.8047V48.7124H29.9312C29.6577 48.7124 29.4469 48.6668 29.2988 48.5757C29.1507 48.4731 29.0368 48.2965 28.957 48.0459C28.8887 47.7952 28.8545 47.4307 28.8545 46.9521C28.8545 46.4736 28.8887 46.109 28.957 45.8584C29.0368 45.6077 29.1507 45.4368 29.2988 45.3457C29.4469 45.2546 29.6577 45.209 29.9312 45.209H34.4429C34.8302 45.209 35.1037 45.2944 35.2632 45.4653C35.4341 45.6248 35.5195 45.8983 35.5195 46.2856V54.7964C35.5195 55.6851 35.6733 56.3573 35.981 56.813C36.2886 57.2687 36.8013 57.4966 37.519 57.4966C38.1799 57.4966 38.8065 57.2231 39.3989 56.6763C39.9914 56.118 40.4642 55.3774 40.8174 54.4546C41.182 53.5317 41.3643 52.5462 41.3643 51.498V48.7124H39.5356C39.2622 48.7124 39.0514 48.6668 38.9033 48.5757C38.7552 48.4731 38.6413 48.2965 38.5615 48.0459C38.4932 47.7952 38.459 47.4307 38.459 46.9521C38.459 46.4736 38.4932 46.109 38.5615 45.8584C38.6413 45.6077 38.7552 45.4368 38.9033 45.3457C39.0514 45.2546 39.2622 45.209 39.5356 45.209H44.5601ZM60.9492 44.833C62.4417 44.833 63.7463 45.1976 64.8628 45.9268C65.9793 46.6559 66.8338 47.6471 67.4263 48.9004C68.0187 50.1536 68.3149 51.555 68.3149 53.1045C68.3149 54.654 68.0187 56.0553 67.4263 57.3086C66.8338 58.5618 65.9793 59.5531 64.8628 60.2822C63.7463 61.0114 62.4417 61.376 60.9492 61.376C60.0605 61.376 59.2345 61.2051 58.4712 60.8633C57.7078 60.5101 57.0356 60.0088 56.4546 59.3594V64.1274H59.3086C59.582 64.1274 59.7928 64.173 59.9409 64.2642C60.089 64.3553 60.1973 64.5262 60.2656 64.7769C60.3454 65.0275 60.3853 65.3921 60.3853 65.8706C60.3853 66.3491 60.3454 66.7137 60.2656 66.9644C60.1973 67.215 60.089 67.3859 59.9409 67.4771C59.7928 67.5796 59.582 67.6309 59.3086 67.6309H50.6953C50.4219 67.6309 50.2111 67.5853 50.063 67.4941C49.9149 67.403 49.8009 67.2321 49.7212 66.9814C49.6528 66.7308 49.6187 66.3662 49.6187 65.8877C49.6187 65.4092 49.6528 65.0446 49.7212 64.7939C49.8009 64.5433 49.9149 64.3667 50.063 64.2642C50.2111 64.173 50.4219 64.1274 50.6953 64.1274H52.1821V48.7124H50.6953C50.4219 48.7124 50.2111 48.6668 50.063 48.5757C49.9149 48.4845 49.8009 48.3136 49.7212 48.063C49.6528 47.8123 49.6187 47.4478 49.6187 46.9692C49.6187 46.4907 49.6528 46.1261 49.7212 45.8755C49.8009 45.6248 49.9149 45.4539 50.063 45.3628C50.2111 45.2603 50.4219 45.209 50.6953 45.209H54.6943C55.0817 45.209 55.3551 45.2944 55.5146 45.4653C55.6855 45.6248 55.771 45.8983 55.771 46.2856V47.7212C56.3634 46.8097 57.104 46.1034 57.9927 45.6021C58.8813 45.0894 59.8669 44.833 60.9492 44.833ZM60.2656 48.7124C59.5365 48.7124 58.8757 48.8833 58.2832 49.2251C57.6908 49.5669 57.2179 50.0739 56.8647 50.7461C56.5116 51.4069 56.335 52.193 56.335 53.1045C56.335 54.016 56.5116 54.8078 56.8647 55.48C57.2179 56.1408 57.6908 56.6421 58.2832 56.9839C58.8757 57.3257 59.5365 57.4966 60.2656 57.4966C60.972 57.4966 61.5872 57.32 62.1113 56.9668C62.6354 56.6022 63.0342 56.0895 63.3076 55.4287C63.5924 54.7679 63.7349 53.9932 63.7349 53.1045C63.7349 52.2158 63.5924 51.4411 63.3076 50.7803C63.0342 50.1195 62.6354 49.6125 62.1113 49.2593C61.5872 48.8947 60.972 48.7124 60.2656 48.7124Z" fill="black"/>
</svg>
