<svg width="300" height="51" viewBox="0 0 300 51" fill="none" xmlns="http://www.w3.org/2000/svg">
<path d="M40.908 20.2331C41.2148 20.2331 41.4514 20.2906 41.6176 20.4057C41.7838 20.508 41.9052 20.6998 41.9819 20.981C42.0714 21.2623 42.1162 21.6714 42.1162 22.2084C42.1162 22.7454 42.0714 23.1545 41.9819 23.4358C41.9052 23.7171 41.7838 23.9088 41.6176 24.0111C41.4514 24.1134 41.2148 24.1645 40.908 24.1645H37.3409V36.0356C37.3409 38.4904 36.6505 40.3378 35.2697 41.578C33.8889 42.8054 31.8625 43.419 29.1903 43.419C26.1986 43.419 23.7119 42.4793 21.7302 40.5999C21.5256 40.3953 21.4233 40.0757 21.4233 39.641V33.4274C21.4233 32.9927 21.6151 32.6859 21.9987 32.5069C22.395 32.3151 23.0471 32.2192 23.9548 32.2192C24.5557 32.2192 25.016 32.264 25.3356 32.3535C25.668 32.4302 25.8982 32.5516 26.026 32.7178C26.1539 32.884 26.2178 33.1206 26.2178 33.4274V38.4136C27.1 38.8483 28.1611 39.0657 29.4013 39.0657C30.4497 39.0657 31.236 38.7908 31.7602 38.241C32.2844 37.6785 32.5465 36.8155 32.5465 35.652V24.1645H26.6781C26.3712 24.1645 26.1347 24.1134 25.9685 24.0111C25.8023 23.9088 25.6744 23.7171 25.5849 23.4358C25.5082 23.1545 25.4699 22.7454 25.4699 22.2084C25.4699 21.6714 25.5082 21.2623 25.5849 20.981C25.6744 20.6998 25.8023 20.508 25.9685 20.4057C26.1347 20.2906 26.3712 20.2331 26.6781 20.2331H40.908Z" fill="black"/>
<path d="M55.1187 24.8549C57.0621 24.8549 58.7178 25.2769 60.0858 26.1207C61.4538 26.9517 62.483 28.1152 63.1734 29.611C63.8766 31.0941 64.2282 32.7945 64.2282 34.7123C64.2282 35.147 64.1323 35.4539 63.9405 35.6329C63.7615 35.8119 63.4547 35.9014 63.02 35.9014H50.7078C50.9508 36.9242 51.4686 37.7105 52.2612 38.2602C53.0667 38.7972 54.0831 39.0657 55.3105 39.0657C57.2922 39.0657 59.4401 38.7141 61.7542 38.0109C61.9077 37.9598 62.0611 37.9342 62.2145 37.9342C62.4958 37.9342 62.7387 38.062 62.9433 38.3178C63.1478 38.5735 63.3332 39.0082 63.4994 39.6218C63.6273 40.0949 63.6912 40.4976 63.6912 40.83C63.6912 41.1625 63.6145 41.4246 63.4611 41.6163C63.3204 41.7953 63.0839 41.9424 62.7515 42.0574C61.473 42.4793 60.1689 42.8117 58.8392 43.0547C57.5096 43.2976 56.2055 43.419 54.9269 43.419C52.9836 43.419 51.3087 43.0227 49.9024 42.23C48.496 41.4373 47.422 40.3442 46.6805 38.9506C45.9517 37.5442 45.5874 35.9397 45.5874 34.137C45.5874 32.3471 45.9709 30.7489 46.738 29.3425C47.5051 27.9362 48.6111 26.8366 50.0558 26.044C51.5005 25.2513 53.1882 24.8549 55.1187 24.8549ZM55.1187 29.2083C52.779 29.2083 51.3343 30.1928 50.7845 32.1617H59.2228C59.0054 31.2284 58.5388 30.506 57.8228 29.9946C57.1196 29.4704 56.2183 29.2083 55.1187 29.2083Z" fill="black"/>
<path d="M78.4006 24.8549C80.3439 24.8549 82.0443 25.2513 83.5019 26.044C84.9594 26.8366 86.0781 27.9362 86.858 29.3425C87.6507 30.7489 88.047 32.3471 88.047 34.137C88.047 35.9269 87.6507 37.5251 86.858 38.9314C86.0781 40.3378 84.9594 41.4373 83.5019 42.23C82.0443 43.0227 80.3439 43.419 78.4006 43.419C76.4572 43.419 74.7568 43.0227 73.2993 42.23C71.8418 41.4373 70.7167 40.3378 69.924 38.9314C69.1441 37.5251 68.7541 35.9269 68.7541 34.137C68.7541 32.3471 69.1441 30.7489 69.924 29.3425C70.7167 27.9362 71.8418 26.8366 73.2993 26.044C74.7568 25.2513 76.4572 24.8549 78.4006 24.8549ZM78.4006 29.2083C77.48 29.2083 76.681 29.4129 76.0033 29.822C75.3257 30.2183 74.8015 30.7873 74.4308 31.5288C74.0728 32.2704 73.8938 33.1397 73.8938 34.137C73.8938 35.1342 74.0728 36.0036 74.4308 36.7452C74.8015 37.4867 75.3257 38.062 76.0033 38.4712C76.681 38.8675 77.48 39.0657 78.4006 39.0657C79.3211 39.0657 80.1202 38.8675 80.7978 38.4712C81.4754 38.062 81.9932 37.4867 82.3512 36.7452C82.722 36.0036 82.9074 35.1342 82.9074 34.137C82.9074 33.1397 82.722 32.2704 82.3512 31.5288C81.9932 30.7873 81.4754 30.2183 80.7978 29.822C80.1202 29.4129 79.3211 29.2083 78.4006 29.2083Z" fill="black"/>
<path d="M104.693 24.8549C105.857 24.8549 106.873 25.1106 107.743 25.6221C108.625 26.1335 109.302 26.8622 109.775 27.8083C110.248 28.7416 110.485 29.8412 110.485 31.1069V39.0657H111.962C112.269 39.0657 112.505 39.1232 112.671 39.2383C112.837 39.3406 112.959 39.5323 113.036 39.8136C113.125 40.0949 113.17 40.504 113.17 41.041C113.17 41.578 113.125 41.9871 113.036 42.2684C112.959 42.5497 112.837 42.7414 112.671 42.8437C112.505 42.946 112.269 42.9971 111.962 42.9971H104.789C104.482 42.9971 104.246 42.946 104.08 42.8437C103.913 42.7414 103.786 42.5497 103.696 42.2684C103.619 41.9871 103.581 41.578 103.581 41.041C103.581 40.504 103.619 40.0949 103.696 39.8136C103.786 39.5323 103.913 39.3406 104.08 39.2383C104.246 39.1232 104.482 39.0657 104.789 39.0657H105.691V32.2384C105.691 31.2411 105.518 30.4868 105.173 29.9754C104.828 29.464 104.252 29.2083 103.447 29.2083C102.705 29.2083 102.002 29.5215 101.337 30.148C100.672 30.7617 100.135 31.5863 99.7263 32.6219C99.3299 33.6575 99.1318 34.7635 99.1318 35.9397V39.0657H100.033C100.34 39.0657 100.576 39.1232 100.743 39.2383C100.909 39.3406 101.03 39.5323 101.107 39.8136C101.197 40.0949 101.241 40.504 101.241 41.041C101.241 41.578 101.197 41.9871 101.107 42.2684C101.03 42.5497 100.909 42.7414 100.743 42.8437C100.576 42.946 100.34 42.9971 100.033 42.9971H92.8606C92.5538 42.9971 92.3173 42.946 92.151 42.8437C91.9848 42.7414 91.857 42.5497 91.7675 42.2684C91.6908 41.9871 91.6524 41.578 91.6524 41.041C91.6524 40.504 91.6908 40.0949 91.7675 39.8136C91.857 39.5323 91.9848 39.3406 92.151 39.2383C92.3173 39.1232 92.5538 39.0657 92.8606 39.0657H94.3373V29.2083H92.4771C92.1702 29.2083 91.9337 29.1572 91.7675 29.0549C91.6013 28.9526 91.4734 28.7608 91.3839 28.4795C91.3072 28.1983 91.2689 27.7891 91.2689 27.2522C91.2689 26.7152 91.3072 26.3061 91.3839 26.0248C91.4734 25.7435 91.6013 25.5517 91.7675 25.4495C91.9337 25.3344 92.1702 25.2769 92.4771 25.2769H97.1565C97.5912 25.2769 97.898 25.3727 98.077 25.5645C98.2688 25.7435 98.3647 26.0504 98.3647 26.4851V29.2658C100.052 26.3252 102.162 24.8549 104.693 24.8549Z" fill="black"/>
<path d="M123.852 24.8549C125.067 24.8549 126.172 25.1106 127.17 25.6221C128.167 26.1335 128.998 26.8686 129.663 27.8275V26.4851C129.663 26.0504 129.752 25.7435 129.931 25.5645C130.123 25.3727 130.436 25.2769 130.871 25.2769H135.359C135.665 25.2769 135.902 25.3344 136.068 25.4495C136.234 25.5517 136.356 25.7435 136.433 26.0248C136.522 26.3061 136.567 26.7152 136.567 27.2522C136.567 27.7891 136.522 28.1983 136.433 28.4795C136.356 28.7608 136.234 28.9526 136.068 29.0549C135.902 29.1572 135.665 29.2083 135.359 29.2083H133.69V42.978C133.69 45.4839 132.936 47.4208 131.427 48.7888C129.931 50.1696 127.687 50.86 124.696 50.86C123.596 50.86 122.394 50.7514 121.09 50.534C119.786 50.3294 118.54 50.0418 117.351 49.671C116.737 49.4792 116.43 49.0381 116.43 48.3477C116.43 48.0409 116.513 47.5934 116.679 47.0053C116.871 46.4044 117.082 45.9697 117.312 45.7012C117.555 45.4327 117.837 45.2985 118.156 45.2985C118.322 45.2985 118.476 45.324 118.616 45.3752C121.058 46.1295 123.021 46.5067 124.504 46.5067C126.051 46.5067 127.17 46.1806 127.86 45.5286C128.551 44.8893 128.896 43.9113 128.896 42.5944V40.6383C128.244 41.3415 127.489 41.8848 126.633 42.2684C125.776 42.6519 124.849 42.8437 123.852 42.8437C122.203 42.8437 120.752 42.4602 119.499 41.693C118.246 40.9131 117.28 39.8456 116.603 38.4904C115.925 37.1223 115.586 35.5753 115.586 33.8493C115.586 32.1233 115.925 30.5827 116.603 29.2275C117.28 27.8595 118.246 26.7919 119.499 26.0248C120.752 25.2449 122.203 24.8549 123.852 24.8549ZM124.619 29.2083C123.43 29.2083 122.484 29.6174 121.781 30.4357C121.078 31.2411 120.726 32.379 120.726 33.8493C120.726 35.3196 121.078 36.4639 121.781 37.2822C122.484 38.0876 123.43 38.4904 124.619 38.4904C125.437 38.4904 126.179 38.3178 126.844 37.9726C127.521 37.6146 128.052 37.0904 128.435 36.4C128.832 35.6968 129.03 34.8466 129.03 33.8493C129.03 32.8521 128.832 32.0083 128.435 31.3179C128.052 30.6147 127.521 30.0905 126.844 29.7453C126.179 29.3873 125.437 29.2083 124.619 29.2083Z" fill="black"/>
<path d="M160.002 25.2769C160.309 25.2769 160.545 25.3344 160.712 25.4495C160.878 25.5517 160.999 25.7435 161.076 26.0248C161.166 26.3061 161.21 26.7152 161.21 27.2522C161.21 27.7891 161.166 28.1983 161.076 28.4795C160.999 28.7608 160.878 28.9526 160.712 29.0549C160.545 29.1572 160.309 29.2083 160.002 29.2083H159.216L156.416 42.1725C156.314 42.6328 156.09 42.9524 155.745 43.1314C155.412 43.3232 154.862 43.419 154.095 43.419C153.354 43.419 152.804 43.3232 152.446 43.1314C152.088 42.9396 151.826 42.62 151.66 42.1725L148.975 35.3644L146.252 42.1725C146.073 42.62 145.804 42.9396 145.446 43.1314C145.088 43.3232 144.532 43.419 143.778 43.419C143.011 43.419 142.461 43.3232 142.128 43.1314C141.809 42.9524 141.598 42.6328 141.496 42.1725L138.753 29.2083H138.101C137.794 29.2083 137.558 29.1572 137.391 29.0549C137.225 28.9526 137.104 28.7608 137.027 28.4795C136.938 28.1983 136.893 27.7891 136.893 27.2522C136.893 26.7152 136.938 26.3061 137.027 26.0248C137.104 25.7435 137.225 25.5517 137.391 25.4495C137.558 25.3344 137.794 25.2769 138.101 25.2769H144.698C145.005 25.2769 145.242 25.3344 145.408 25.4495C145.574 25.5517 145.695 25.7435 145.772 26.0248C145.862 26.3061 145.906 26.7152 145.906 27.2522C145.906 27.7891 145.862 28.1983 145.772 28.4795C145.695 28.7608 145.574 28.9526 145.408 29.0549C145.242 29.1572 145.005 29.2083 144.698 29.2083H143.068L144.506 36.6493L147.153 30.148C147.294 29.79 147.505 29.5215 147.786 29.3425C148.067 29.1508 148.47 29.0549 148.994 29.0549C149.544 29.0549 149.953 29.1316 150.221 29.285C150.503 29.4384 150.714 29.6814 150.854 30.0138L153.482 36.6493L154.978 29.2083H153.597C153.29 29.2083 153.053 29.1572 152.887 29.0549C152.721 28.9526 152.593 28.7608 152.504 28.4795C152.427 28.1983 152.388 27.7891 152.388 27.2522C152.388 26.7152 152.427 26.3061 152.504 26.0248C152.593 25.7435 152.721 25.5517 152.887 25.4495C153.053 25.3344 153.29 25.2769 153.597 25.2769H160.002Z" fill="black"/>
<path d="M172.602 24.8549C174.545 24.8549 176.246 25.2513 177.703 26.044C179.161 26.8366 180.279 27.9362 181.059 29.3425C181.852 30.7489 182.248 32.3471 182.248 34.137C182.248 35.9269 181.852 37.5251 181.059 38.9314C180.279 40.3378 179.161 41.4373 177.703 42.23C176.246 43.0227 174.545 43.419 172.602 43.419C170.659 43.419 168.958 43.0227 167.501 42.23C166.043 41.4373 164.918 40.3378 164.125 38.9314C163.345 37.5251 162.955 35.9269 162.955 34.137C162.955 32.3471 163.345 30.7489 164.125 29.3425C164.918 27.9362 166.043 26.8366 167.501 26.044C168.958 25.2513 170.659 24.8549 172.602 24.8549ZM172.602 29.2083C171.681 29.2083 170.882 29.4129 170.205 29.822C169.527 30.2183 169.003 30.7873 168.632 31.5288C168.274 32.2704 168.095 33.1397 168.095 34.137C168.095 35.1342 168.274 36.0036 168.632 36.7452C169.003 37.4867 169.527 38.062 170.205 38.4712C170.882 38.8675 171.681 39.0657 172.602 39.0657C173.522 39.0657 174.322 38.8675 174.999 38.4712C175.677 38.062 176.195 37.4867 176.553 36.7452C176.923 36.0036 177.109 35.1342 177.109 34.137C177.109 33.1397 176.923 32.2704 176.553 31.5288C176.195 30.7873 175.677 30.2183 174.999 29.822C174.322 29.4129 173.522 29.2083 172.602 29.2083Z" fill="black"/>
<path d="M198.895 24.8549C200.058 24.8549 201.075 25.1106 201.944 25.6221C202.826 26.1335 203.504 26.8622 203.977 27.8083C204.45 28.7416 204.686 29.8412 204.686 31.1069V39.0657H206.163C206.47 39.0657 206.706 39.1232 206.873 39.2383C207.039 39.3406 207.16 39.5323 207.237 39.8136C207.326 40.0949 207.371 40.504 207.371 41.041C207.371 41.578 207.326 41.9871 207.237 42.2684C207.16 42.5497 207.039 42.7414 206.873 42.8437C206.706 42.946 206.47 42.9971 206.163 42.9971H198.991C198.684 42.9971 198.447 42.946 198.281 42.8437C198.115 42.7414 197.987 42.5497 197.897 42.2684C197.821 41.9871 197.782 41.578 197.782 41.041C197.782 40.504 197.821 40.0949 197.897 39.8136C197.987 39.5323 198.115 39.3406 198.281 39.2383C198.447 39.1232 198.684 39.0657 198.991 39.0657H199.892V32.2384C199.892 31.2411 199.719 30.4868 199.374 29.9754C199.029 29.464 198.454 29.2083 197.648 29.2083C196.907 29.2083 196.203 29.5215 195.539 30.148C194.874 30.7617 194.337 31.5863 193.928 32.6219C193.531 33.6575 193.333 34.7635 193.333 35.9397V39.0657H194.234C194.541 39.0657 194.778 39.1232 194.944 39.2383C195.11 39.3406 195.232 39.5323 195.308 39.8136C195.398 40.0949 195.443 40.504 195.443 41.041C195.443 41.578 195.398 41.9871 195.308 42.2684C195.232 42.5497 195.11 42.7414 194.944 42.8437C194.778 42.946 194.541 42.9971 194.234 42.9971H187.062C186.755 42.9971 186.519 42.946 186.352 42.8437C186.186 42.7414 186.058 42.5497 185.969 42.2684C185.892 41.9871 185.854 41.578 185.854 41.041C185.854 40.504 185.892 40.0949 185.969 39.8136C186.058 39.5323 186.186 39.3406 186.352 39.2383C186.519 39.1232 186.755 39.0657 187.062 39.0657H188.539V29.2083H186.678C186.372 29.2083 186.135 29.1572 185.969 29.0549C185.803 28.9526 185.675 28.7608 185.585 28.4795C185.509 28.1983 185.47 27.7891 185.47 27.2522C185.47 26.7152 185.509 26.3061 185.585 26.0248C185.675 25.7435 185.803 25.5517 185.969 25.4495C186.135 25.3344 186.372 25.2769 186.678 25.2769H191.358C191.792 25.2769 192.099 25.3727 192.278 25.5645C192.47 25.7435 192.566 26.0504 192.566 26.4851V29.2658C194.254 26.3252 196.363 24.8549 198.895 24.8549Z" fill="black"/>
<path d="M253.053 20.2331C253.36 20.2331 253.596 20.2906 253.762 20.4057C253.929 20.508 254.05 20.6998 254.127 20.981C254.216 21.2623 254.261 21.6714 254.261 22.2084C254.261 22.7454 254.216 23.1545 254.127 23.4358C254.05 23.7171 253.929 23.9088 253.762 24.0111C253.596 24.1134 253.36 24.1645 253.053 24.1645H252.209L245.65 34.1945V39.0657H249.409C249.716 39.0657 249.952 39.1232 250.119 39.2383C250.285 39.3406 250.406 39.5323 250.483 39.8136C250.572 40.0949 250.617 40.504 250.617 41.041C250.617 41.578 250.572 41.9871 250.483 42.2684C250.406 42.5497 250.285 42.7414 250.119 42.8437C249.952 42.946 249.716 42.9971 249.409 42.9971H237.097C236.79 42.9971 236.553 42.946 236.387 42.8437C236.221 42.7414 236.093 42.5497 236.004 42.2684C235.927 41.9871 235.889 41.578 235.889 41.041C235.889 40.504 235.927 40.0949 236.004 39.8136C236.093 39.5323 236.221 39.3406 236.387 39.2383C236.553 39.1232 236.79 39.0657 237.097 39.0657H240.856V34.1753L234.335 24.1645H233.453C233.146 24.1645 232.91 24.1134 232.743 24.0111C232.577 23.9088 232.449 23.7171 232.36 23.4358C232.283 23.1545 232.245 22.7454 232.245 22.2084C232.245 21.6714 232.283 21.2623 232.36 20.981C232.449 20.6998 232.577 20.508 232.743 20.4057C232.91 20.2906 233.146 20.2331 233.453 20.2331H241.009C241.316 20.2331 241.552 20.2906 241.719 20.4057C241.885 20.508 242.006 20.6998 242.083 20.981C242.173 21.2623 242.217 21.6714 242.217 22.2084C242.217 22.7454 242.173 23.1545 242.083 23.4358C242.006 23.7171 241.885 23.9088 241.719 24.0111C241.552 24.1134 241.316 24.1645 241.009 24.1645H239.724L243.291 29.7645L246.897 24.1645H245.88C245.573 24.1645 245.337 24.1134 245.171 24.0111C245.004 23.9088 244.877 23.7171 244.787 23.4358C244.71 23.1545 244.672 22.7454 244.672 22.2084C244.672 21.6714 244.71 21.2623 244.787 20.981C244.877 20.6998 245.004 20.508 245.171 20.4057C245.337 20.2906 245.573 20.2331 245.88 20.2331H253.053Z" fill="black"/>
<path d="M266.803 24.8549C268.747 24.8549 270.447 25.2513 271.905 26.044C273.362 26.8366 274.481 27.9362 275.261 29.3425C276.053 30.7489 276.45 32.3471 276.45 34.137C276.45 35.9269 276.053 37.5251 275.261 38.9314C274.481 40.3378 273.362 41.4373 271.905 42.23C270.447 43.0227 268.747 43.419 266.803 43.419C264.86 43.419 263.159 43.0227 261.702 42.23C260.244 41.4373 259.119 40.3378 258.327 38.9314C257.547 37.5251 257.157 35.9269 257.157 34.137C257.157 32.3471 257.547 30.7489 258.327 29.3425C259.119 27.9362 260.244 26.8366 261.702 26.044C263.159 25.2513 264.86 24.8549 266.803 24.8549ZM266.803 29.2083C265.883 29.2083 265.084 29.4129 264.406 29.822C263.728 30.2183 263.204 30.7873 262.833 31.5288C262.475 32.2704 262.296 33.1397 262.296 34.137C262.296 35.1342 262.475 36.0036 262.833 36.7452C263.204 37.4867 263.728 38.062 264.406 38.4712C265.084 38.8675 265.883 39.0657 266.803 39.0657C267.724 39.0657 268.523 38.8675 269.2 38.4712C269.878 38.062 270.396 37.4867 270.754 36.7452C271.125 36.0036 271.31 35.1342 271.31 34.137C271.31 33.1397 271.125 32.2704 270.754 31.5288C270.396 30.7873 269.878 30.2183 269.2 29.822C268.523 29.4129 267.724 29.2083 266.803 29.2083Z" fill="black"/>
<path d="M290.354 24.8549C292.297 24.8549 293.997 25.2513 295.455 26.044C296.912 26.8366 298.031 27.9362 298.811 29.3425C299.604 30.7489 300 32.3471 300 34.137C300 35.9269 299.604 37.5251 298.811 38.9314C298.031 40.3378 296.912 41.4373 295.455 42.23C293.997 43.0227 292.297 43.419 290.354 43.419C288.41 43.419 286.71 43.0227 285.252 42.23C283.795 41.4373 282.67 40.3378 281.877 38.9314C281.097 37.5251 280.707 35.9269 280.707 34.137C280.707 32.3471 281.097 30.7489 281.877 29.3425C282.67 27.9362 283.795 26.8366 285.252 26.044C286.71 25.2513 288.41 24.8549 290.354 24.8549ZM290.354 29.2083C289.433 29.2083 288.634 29.4129 287.956 29.822C287.279 30.2183 286.755 30.7873 286.384 31.5288C286.026 32.2704 285.847 33.1397 285.847 34.137C285.847 35.1342 286.026 36.0036 286.384 36.7452C286.755 37.4867 287.279 38.062 287.956 38.4712C288.634 38.8675 289.433 39.0657 290.354 39.0657C291.274 39.0657 292.073 38.8675 292.751 38.4712C293.428 38.062 293.946 37.4867 294.304 36.7452C294.675 36.0036 294.86 35.1342 294.86 34.137C294.86 33.1397 294.675 32.2704 294.304 31.5288C293.946 30.7873 293.428 30.2183 292.751 29.822C292.073 29.4129 291.274 29.2083 290.354 29.2083Z" fill="black"/>
<path d="M17.8642 10.371C19.8154 12.1334 19.9684 15.1438 18.2061 17.095C16.4437 19.0462 13.4333 19.1993 11.4821 17.4369C9.53086 15.6745 9.37778 12.6641 11.1402 10.7129C12.9025 8.76169 15.913 8.60862 17.8642 10.371Z" fill="#57816D"/>
<path d="M9.91508 3.19106C11.8663 4.95343 12.0194 7.96388 10.257 9.91508C8.4946 11.8663 5.48416 12.0194 3.53296 10.257C1.58176 8.4946 1.42869 5.48416 3.19106 3.53296C4.95343 1.58176 7.96388 1.42869 9.91508 3.19106Z" fill="#F1C40F"/>
</svg>
